<svg xmlns="http://www.w3.org/2000/svg" viewBox="0 0 1024 1063.18"><path d="M0 21.333h1024v1024H0zm934.957 89.043H89.044V956.29h845.913zM76 904.956l-62.955-62.954 328.838-328.838 255.11 254.664L767.11 597.71l243.847 244.38L947.914 905 767.022 723.75l-170.03 170.03-255.11-254.664zm521.037-671.254c71.553 0 129.558 58.005 129.558 129.558S668.59 492.818 597.037 492.818 467.48 434.813 467.48 363.26c.075-71.522 58.035-129.482 129.55-129.558h.007zm0 170.073c22.376 0 40.515-18.14 40.515-40.515s-18.14-40.515-40.515-40.515c-22.376 0-40.515 18.14-40.515 40.515.025 22.366 18.15 40.49 40.512 40.515h.002z"/></svg>